<svg width="68" height="68" viewBox="0 0 68 68" fill="none" xmlns="http://www.w3.org/2000/svg">
<rect width="68" height="68" rx="12" fill="#0052CC"/>
<g clip-path="url(#clip0_114_26)">
<path d="M36.454 51.5982C36.454 50.7848 36.0188 50.4065 34.827 50.1605C34.1649 50.0092 33.9946 49.8579 33.9946 49.6497C33.9946 49.3848 34.2404 49.2713 34.6757 49.2713C35.2053 49.2713 35.735 49.4417 36.2269 49.6497V48.5903C35.8674 48.42 35.3377 48.2687 34.7135 48.2687C33.5216 48.2687 32.8974 48.7795 32.8974 49.6308C32.8974 50.3119 33.2189 50.8416 34.4486 51.0876C35.1864 51.2389 35.3377 51.3524 35.3377 51.5982C35.3377 51.8442 35.1864 51.9955 34.6566 51.9955C34.0513 51.9955 33.3325 51.7875 32.8783 51.5037V52.6199C33.2567 52.809 33.7487 52.9983 34.6566 52.9983C35.9243 53.0361 36.454 52.4497 36.454 51.5982Z" fill="white"/>
<path d="M40.8997 51.5982C40.8997 50.7848 40.4646 50.4065 39.2727 50.1605C38.6105 50.0092 38.4403 49.8579 38.4403 49.6497C38.4403 49.3848 38.6863 49.2713 39.1214 49.2713C39.6511 49.2713 40.1808 49.4417 40.6726 49.6497V48.5903C40.3133 48.42 39.7835 48.2687 39.1592 48.2687C37.9674 48.2687 37.3431 48.7795 37.3431 49.6308C37.3431 50.3119 37.6648 50.8416 38.8943 51.0876C39.6322 51.2389 39.7835 51.3524 39.7835 51.5982C39.7835 51.8442 39.6322 51.9955 39.1025 51.9955C38.4971 51.9955 37.7782 51.7875 37.3242 51.5037V52.6199C37.7026 52.809 38.1945 52.9983 39.1025 52.9983C40.3889 53.0361 40.8997 52.4497 40.8997 51.5982Z" fill="white"/>
<path d="M49.4508 48.3633V52.9604H50.4345V49.4417L50.8507 50.3876L52.2317 52.9604H53.4614V48.3633H52.4776V51.3335L52.1181 50.4632L51.002 48.3633H49.4508Z" fill="white"/>
<path d="M43.2266 48.3633H42.1483V52.9604H43.2266V48.3633Z" fill="white"/>
<path d="M24.5733 48.3633V52.9604H26.7677L27.1083 51.9577H25.6516V48.3633H24.5733Z" fill="white"/>
<path d="M20.2221 48.3633V49.3471H21.414V52.9604H22.4923V49.3471H23.7598V48.3633H20.2221Z" fill="white"/>
<path d="M18.6519 48.3633H17.233L15.625 52.9604H16.8547L17.0817 52.1848C17.3466 52.2604 17.6493 52.3172 17.933 52.3172C18.2168 52.3172 18.5195 52.2793 18.7844 52.1848L19.0114 52.9604H20.241L18.6519 48.3633ZM17.9519 51.3524C17.7438 51.3524 17.5547 51.3145 17.3655 51.2767L17.9519 49.2713L18.5384 51.2767C18.3492 51.3335 18.1411 51.3524 17.9519 51.3524Z" fill="white"/>
<path d="M30.5704 48.3633H29.1515L27.5434 52.9604H28.7732L29.0002 52.1848C29.265 52.2604 29.5677 52.3172 29.8516 52.3172C30.1353 52.3172 30.438 52.2793 30.7029 52.1848L30.9298 52.9604H32.1595L30.5704 48.3633ZM29.8516 51.3524C29.6434 51.3524 29.4543 51.3145 29.265 51.2767L29.8516 49.2713L30.438 51.2767C30.2678 51.3335 30.0596 51.3524 29.8516 51.3524Z" fill="white"/>
<path d="M47.0859 48.3633H45.6671L44.059 52.9604H45.2887L45.5157 52.1848C45.7806 52.2604 46.0833 52.3172 46.367 52.3172C46.6697 52.3172 46.9535 52.2793 47.2183 52.1848L47.4454 52.9604H48.6751L47.0859 48.3633ZM46.367 51.3524C46.1589 51.3524 45.9697 51.3145 45.7806 51.2767L46.367 49.2713L46.9535 51.2767C46.7643 51.3335 46.5751 51.3524 46.367 51.3524Z" fill="white"/>
<path d="M27.2408 27.0616C27.0515 26.8534 26.7866 26.74 26.5218 26.7778C26.2948 26.8156 26.0867 26.9859 25.9921 27.194L17.4222 44.3338C17.233 44.7122 17.3844 45.1473 17.7627 45.3364C17.8763 45.3933 17.9898 45.4122 18.1033 45.4122H30.0406C30.3243 45.4122 30.5892 45.2608 30.7027 44.996C33.1999 39.8124 31.6487 31.7721 27.2408 27.0616Z" fill="white"/>
<path d="M51.6829 44.3338C51.5316 44.0121 35.6215 12.1918 35.2242 11.3973C35.1106 11.1703 34.9025 11.0189 34.6566 11H34.6376C34.3539 11.0189 34.108 11.1703 33.9566 11.4162C29.6433 18.2456 29.1514 26.4939 32.6513 33.4747L38.4024 44.9958C38.5348 45.2607 38.7808 45.412 39.0834 45.412H51.0208C51.437 45.412 51.7776 45.0716 51.7776 44.6554C51.7776 44.5419 51.7396 44.4283 51.6829 44.3338Z" fill="white"/>
</g>
<defs>
<clipPath id="clip0_114_26">
<rect width="42" height="42" fill="white" transform="translate(13 11)"/>
</clipPath>
</defs>
</svg>
