<svg width="68" height="68" viewBox="0 0 68 68" fill="none" xmlns="http://www.w3.org/2000/svg">
<rect width="68" height="68" rx="12" fill="#1A1A1A"/>
<path d="M27.0055 55C28.862 55 30.6425 54.2625 31.9552 52.9497C33.268 51.637 34.0055 49.8565 34.0055 48V41H27.0055C25.1489 41 23.3685 41.7375 22.0557 43.0502C20.743 44.363 20.0055 46.1435 20.0055 48C20.0055 49.8565 20.743 51.637 22.0557 52.9497C23.3685 54.2625 25.1489 55 27.0055 55Z" fill="#0ACF83"/>
<path d="M20.0055 34C20.0055 32.1435 20.743 30.363 22.0557 29.0503C23.3685 27.7375 25.1489 27 27.0055 27H34.0055V41H27.0055C25.1489 41 23.3685 40.2625 22.0557 38.9497C20.743 37.637 20.0055 35.8565 20.0055 34Z" fill="#A259FF"/>
<path d="M20.0055 20C20.0055 18.1444 20.7422 16.3648 22.0538 15.0522C23.3654 13.7396 25.1444 13.0014 27 13H34V27H27.0055C25.1489 27 23.3685 26.2625 22.0557 24.9497C20.743 23.637 20.0055 21.8565 20.0055 20Z" fill="#F24E1E"/>
<path d="M34.0055 13H41.0055C42.862 13 44.6425 13.7375 45.9552 15.0503C47.268 16.363 48.0055 18.1435 48.0055 20C48.0055 21.8565 47.268 23.637 45.9552 24.9497C44.6425 26.2625 42.862 27 41.0055 27H34.0055V13Z" fill="#FF7262"/>
<path d="M48.0055 34C48.0055 35.8565 47.268 37.637 45.9552 38.9497C44.6425 40.2625 42.862 41 41.0055 41C39.1489 41 37.3685 40.2625 36.0557 38.9497C34.743 37.637 34.0055 35.8565 34.0055 34C34.0055 32.1435 34.743 30.363 36.0557 29.0503C37.3685 27.7375 39.1489 27 41.0055 27C42.862 27 44.6425 27.7375 45.9552 29.0503C47.268 30.363 48.0055 32.1435 48.0055 34Z" fill="#1ABCFE"/>
</svg>
