<svg width="161" height="50" viewBox="0 0 161 50" fill="none" xmlns="http://www.w3.org/2000/svg">
<rect x="151" y="32" width="3" height="3" rx="1.5" fill="#D85252"/>
<path d="M2.861 33V32.286L4.751 32.097C4.793 30.627 4.814 28.38 4.814 25.356V24.6C4.814 21.744 4.793 19.609 4.751 18.195L2.861 18.027V17.313H10.253C13.907 17.313 15.734 18.538 15.734 20.988C15.734 22.892 14.271 24.103 11.345 24.621C14.887 24.971 16.658 26.308 16.658 28.632C16.658 29.85 16.175 30.837 15.209 31.593C14.005 32.531 12.108 33 9.518 33H2.861ZM8.342 32.223H9.413C10.561 32.223 11.45 31.922 12.08 31.32C12.71 30.718 13.025 29.843 13.025 28.695C13.025 27.477 12.717 26.588 12.101 26.028C11.499 25.454 10.561 25.167 9.287 25.167H8.279C8.279 28.373 8.3 30.725 8.342 32.223ZM8.279 24.411H9.098C10.162 24.411 10.974 24.124 11.534 23.55C12.066 22.976 12.332 22.164 12.332 21.114C12.332 19.112 11.331 18.111 9.329 18.111H8.342C8.3 19.483 8.279 21.583 8.279 24.411ZM24.0794 33.357C22.2874 33.357 20.8454 32.797 19.7534 31.677C18.6754 30.543 18.1364 29.052 18.1364 27.204C18.1364 25.384 18.7174 23.914 19.8794 22.794C20.9854 21.716 22.3854 21.177 24.0794 21.177C25.7874 21.177 27.1944 21.709 28.3004 22.773C29.4624 23.893 30.0434 25.37 30.0434 27.204C30.0434 29.08 29.4974 30.578 28.4054 31.698C27.3134 32.804 25.8714 33.357 24.0794 33.357ZM24.0794 32.622C25.6334 32.622 26.4104 30.83 26.4104 27.246C26.4104 23.69 25.6334 21.912 24.0794 21.912C22.5114 21.912 21.7274 23.69 21.7274 27.246C21.7274 30.83 22.5114 32.622 24.0794 32.622ZM39.5925 33.357C38.2345 33.357 37.1215 32.86 36.2535 31.866L35.8125 33.315L31.5285 33V32.349L32.9145 32.223C32.9425 30.599 32.9565 29.192 32.9565 28.002V17.25L31.4235 17.103V16.557L36.0645 15.654L36.3585 15.843L36.2955 19.224V22.647C37.2895 21.667 38.4725 21.177 39.8445 21.177C41.2025 21.177 42.3085 21.695 43.1625 22.731C44.0585 23.823 44.5065 25.321 44.5065 27.225C44.5065 28.989 44.0585 30.445 43.1625 31.593C42.2385 32.769 41.0485 33.357 39.5925 33.357ZM38.1015 31.866C39.9635 31.866 40.8945 30.291 40.8945 27.141C40.8945 25.587 40.6355 24.425 40.1175 23.655C39.6555 22.969 39.0045 22.626 38.1645 22.626C37.4365 22.626 36.8275 22.836 36.3375 23.256V31.278C36.8415 31.67 37.4295 31.866 38.1015 31.866ZM52.0725 33.357C50.2805 33.357 48.8385 32.797 47.7465 31.677C46.6685 30.543 46.1295 29.052 46.1295 27.204C46.1295 25.384 46.7105 23.914 47.8725 22.794C48.9785 21.716 50.3785 21.177 52.0725 21.177C53.7805 21.177 55.1875 21.709 56.2935 22.773C57.4555 23.893 58.0365 25.37 58.0365 27.204C58.0365 29.08 57.4905 30.578 56.3985 31.698C55.3065 32.804 53.8645 33.357 52.0725 33.357ZM52.0725 32.622C53.6265 32.622 54.4035 30.83 54.4035 27.246C54.4035 23.69 53.6265 21.912 52.0725 21.912C50.5045 21.912 49.7205 23.69 49.7205 27.246C49.7205 30.83 50.5045 32.622 52.0725 32.622ZM73.2151 33.42C70.7791 33.42 68.8051 32.734 67.2931 31.362C65.6691 29.878 64.8571 27.806 64.8571 25.146C64.8571 22.472 65.7111 20.393 67.4191 18.909C68.9591 17.565 70.9471 16.893 73.3831 16.893C74.9091 16.893 76.3931 17.292 77.8351 18.09L77.7511 21.912H76.5121L75.3571 17.901C74.8951 17.761 74.3841 17.691 73.8241 17.691C72.2701 17.691 71.0311 18.293 70.1071 19.497C69.0851 20.813 68.5741 22.71 68.5741 25.188C68.5741 27.652 69.0851 29.535 70.1071 30.837C71.0311 32.013 72.2981 32.601 73.9081 32.601C74.4961 32.601 75.0421 32.51 75.5461 32.328L76.6591 28.401H77.8981L77.9821 32.181C76.5821 33.007 74.9931 33.42 73.2151 33.42ZM79.5783 33V32.349L80.9643 32.223C80.9923 30.571 81.0063 29.164 81.0063 28.002V17.25L79.4733 17.103V16.557L84.1143 15.654L84.4083 15.843L84.3453 19.224V23.298C84.9893 22.542 85.5983 22.003 86.1723 21.681C86.7883 21.345 87.4813 21.177 88.2513 21.177C89.3153 21.177 90.1413 21.499 90.7293 22.143C91.3593 22.857 91.6743 23.9 91.6743 25.272V28.002C91.6743 29.206 91.6883 30.62 91.7163 32.244L92.9763 32.349V33H86.8863V32.349L88.2303 32.223C88.2583 30.599 88.2723 29.192 88.2723 28.002V24.978C88.2723 23.494 87.7613 22.752 86.7393 22.752C86.0113 22.752 85.2273 23.13 84.3873 23.886V28.002C84.3873 29.178 84.4013 30.592 84.4293 32.244L85.6473 32.349V33H79.5783ZM98.7573 33.357C96.4613 33.357 95.3343 31.915 95.3763 29.031L95.4603 22.794L93.9903 22.5V21.933L98.6523 21.303L98.9253 21.513L98.7993 24.936V29.346C98.7993 30.816 99.3523 31.551 100.458 31.551C101.228 31.551 101.949 31.215 102.621 30.543L102.705 22.773L101.298 22.5V22.038L105.855 21.303L106.128 21.513L106.044 24.936V32.286L107.367 32.391V33.021L102.747 33.294L102.642 31.194C102.124 31.838 101.55 32.349 100.92 32.727C100.206 33.147 99.4853 33.357 98.7573 33.357ZM111.849 33.357C110.939 33.357 110.197 33.098 109.623 32.58C109.063 32.062 108.783 31.369 108.783 30.501C108.783 29.535 109.105 28.765 109.749 28.191C110.407 27.603 111.576 27.064 113.256 26.574C113.648 26.462 114.334 26.28 115.314 26.028V24.747C115.314 23.655 115.16 22.913 114.852 22.521C114.558 22.115 114.012 21.912 113.214 21.912C112.906 21.912 112.612 21.94 112.332 21.996L112.185 23.487C112.157 24.159 111.989 24.67 111.681 25.02C111.401 25.328 111.044 25.482 110.61 25.482C109.812 25.482 109.329 25.125 109.161 24.411C109.245 23.403 109.735 22.619 110.631 22.059C111.555 21.471 112.815 21.177 114.411 21.177C115.895 21.177 116.959 21.52 117.603 22.206C118.261 22.878 118.59 23.977 118.59 25.503V31.152C118.59 31.866 118.807 32.223 119.241 32.223C119.535 32.223 119.85 31.957 120.186 31.425L120.543 31.719C120.277 32.293 119.934 32.713 119.514 32.979C119.094 33.231 118.548 33.357 117.876 33.357C116.56 33.357 115.734 32.748 115.398 31.53C114.796 32.188 114.278 32.636 113.844 32.874C113.298 33.196 112.633 33.357 111.849 33.357ZM113.487 31.929C113.977 31.929 114.586 31.607 115.314 30.963V26.595C114.782 26.735 114.397 26.854 114.159 26.952C112.661 27.568 111.912 28.611 111.912 30.081C111.912 31.313 112.437 31.929 113.487 31.929ZM110.82 22.416L111.156 22.29L110.82 22.416ZM121.228 33V32.349L122.635 32.223C122.663 30.571 122.677 29.164 122.677 28.002V26.259C122.677 25.223 122.656 24.201 122.614 23.193L121.039 23.025V22.521L125.596 21.198L125.89 21.408L126.016 23.256C126.688 22.486 127.346 21.94 127.99 21.618C128.564 21.324 129.215 21.177 129.943 21.177C130.979 21.177 131.791 21.506 132.379 22.164C132.995 22.878 133.303 23.9 133.303 25.23V28.002C133.303 29.612 133.324 31.026 133.366 32.244L134.626 32.349V33H128.536V32.349L129.859 32.223C129.887 30.599 129.901 29.192 129.901 28.002V24.978C129.901 24.18 129.782 23.606 129.544 23.256C129.32 22.92 128.956 22.752 128.452 22.752C127.766 22.752 126.968 23.151 126.058 23.949V28.002C126.058 29.178 126.072 30.592 126.1 32.244L127.297 32.349V33H121.228ZM140.722 38.439C138.93 38.439 137.607 38.152 136.753 37.578C136.025 37.102 135.661 36.437 135.661 35.583C135.661 34.603 136.361 33.84 137.761 33.294C137.257 33.07 136.886 32.811 136.648 32.517C136.368 32.181 136.228 31.768 136.228 31.278C136.228 30.774 136.375 30.291 136.669 29.829C136.935 29.409 137.39 28.912 138.034 28.338C136.774 27.652 136.144 26.56 136.144 25.062C136.144 23.886 136.543 22.955 137.341 22.269C138.209 21.541 139.441 21.177 141.037 21.177C142.577 21.177 143.774 21.534 144.628 22.248L147.316 21.177L147.694 21.408V23.046L145.153 22.773C145.629 23.389 145.867 24.152 145.867 25.062C145.867 26.224 145.468 27.155 144.67 27.855C143.802 28.625 142.584 29.01 141.016 29.01C140.036 29.01 139.182 28.856 138.454 28.548C138.216 28.94 138.097 29.339 138.097 29.745C138.097 30.529 138.65 30.921 139.756 30.921H142.843C145.923 30.921 147.463 31.985 147.463 34.113C147.463 35.345 146.889 36.36 145.741 37.158C144.509 38.012 142.836 38.439 140.722 38.439ZM140.701 37.515C142.045 37.515 143.081 37.319 143.809 36.927C144.481 36.563 144.817 36.066 144.817 35.436C144.817 34.932 144.684 34.533 144.418 34.239C144.096 33.903 143.62 33.735 142.99 33.735H140.659C139.539 33.735 138.706 33.658 138.16 33.504C137.81 33.952 137.635 34.491 137.635 35.121C137.635 35.877 137.901 36.465 138.433 36.885C138.979 37.305 139.735 37.515 140.701 37.515ZM139.651 27.477C139.959 28.065 140.407 28.359 140.995 28.359C141.597 28.359 142.059 28.065 142.381 27.477C142.717 26.889 142.885 26.084 142.885 25.062C142.885 24.04 142.717 23.242 142.381 22.668C142.059 22.094 141.611 21.807 141.037 21.807C140.449 21.807 139.994 22.094 139.672 22.668C139.35 23.242 139.189 24.04 139.189 25.062C139.189 26.098 139.343 26.903 139.651 27.477Z" fill="#171717"/>
</svg>
